<svg xmlns="http://www.w3.org/2000/svg" xmlns:xlink="http://www.w3.org/1999/xlink" width="500" zoomAndPan="magnify" viewBox="0 0 375 74.999997" height="100" preserveAspectRatio="xMidYMid meet" version="1.0"><defs><g/><clipPath id="df9b82c1fc"><path d="M 17.96875 10.160156 L 71 10.160156 L 71 63 L 17.96875 63 Z M 17.96875 10.160156 " clip-rule="nonzero"/></clipPath></defs><g clip-path="url(#df9b82c1fc)"><path fill="#d42428" d="M 17.96875 36.261719 C 17.96875 21.847656 29.660156 10.160156 44.074219 10.160156 C 58.484375 10.160156 70.175781 21.847656 70.175781 36.261719 C 70.175781 50.675781 58.484375 62.363281 44.074219 62.363281 C 29.660156 62.363281 17.96875 50.675781 17.96875 36.261719 Z M 17.96875 36.261719 " fill-opacity="1" fill-rule="nonzero"/></g><path fill="#cc202d" d="M 62.527344 17.808594 C 72.71875 28.003906 72.71875 44.53125 62.527344 54.714844 C 52.332031 64.910156 35.804688 64.910156 25.617188 54.714844 Z M 62.527344 17.808594 " fill-opacity="1" fill-rule="nonzero"/><path fill="#ba202e" d="M 69.648438 41.492188 L 56.730469 28.570312 L 41.496094 30.308594 L 32.277344 44.574219 L 49.5 61.796875 C 59.621094 59.648438 67.585938 51.644531 69.648438 41.492188 " fill-opacity="1" fill-rule="nonzero"/><path fill="#ffffff" d="M 57.726562 31.222656 C 57.726562 29.035156 55.960938 27.265625 53.773438 27.265625 L 35.191406 27.265625 C 33.003906 27.265625 31.238281 29.042969 31.238281 31.222656 L 31.238281 41.847656 C 31.238281 44.035156 33.003906 45.816406 35.191406 45.816406 L 53.761719 45.816406 C 55.949219 45.816406 57.71875 44.035156 57.71875 41.847656 L 57.71875 31.222656 Z M 41.832031 41.015625 L 41.832031 31.042969 L 49.394531 36.03125 Z M 41.832031 41.015625 " fill-opacity="1" fill-rule="evenodd"/><g fill="#ffffff" fill-opacity="1"><g transform="translate(79.73264, 44.207251)"><g><path d="M 5.640625 -19.730469 L 1.542969 -19.730469 L 1.542969 0 L 5.640625 0 Z M 5.640625 -19.730469 "/></g></g></g><g fill="#ffffff" fill-opacity="1"><g transform="translate(88.913638, 44.207251)"><g><path d="M 9.082031 -16.191406 L 13.660156 -16.191406 L 13.660156 -19.730469 L 0.429688 -19.730469 L 0.429688 -16.191406 L 4.984375 -16.191406 L 4.984375 0 L 9.082031 0 Z M 9.082031 -16.191406 "/></g></g></g><g fill="#ffffff" fill-opacity="1"><g transform="translate(105.02385, 44.207251)"><g><path d="M 8.375 0.328125 C 13.738281 0.328125 15.480469 -1.949219 15.480469 -6.25 L 15.480469 -19.730469 L 11.382812 -19.730469 L 11.382812 -6.375 C 11.382812 -4.273438 10.699219 -3.210938 8.375 -3.210938 C 6.046875 -3.210938 5.386719 -4.273438 5.386719 -6.375 L 5.386719 -19.730469 L 1.289062 -19.730469 L 1.289062 -6.25 C 1.289062 -1.949219 3.011719 0.328125 8.375 0.328125 Z M 8.375 0.328125 "/></g></g></g><g fill="#ffffff" fill-opacity="1"><g transform="translate(123.814701, 44.207251)"><g><path d="M 1.417969 -19.730469 L 1.417969 0 L 8.09375 0 C 11.28125 0 14.75 -0.859375 14.75 -5.667969 L 14.75 -6.171875 C 14.75 -8.296875 13.738281 -9.511719 12.320312 -10.195312 C 13.457031 -10.851562 14.242188 -11.964844 14.242188 -13.761719 L 14.242188 -14.269531 C 14.242188 -18.898438 10.980469 -19.730469 7.894531 -19.730469 Z M 8.222656 -8.296875 C 9.359375 -8.296875 10.601562 -7.84375 10.601562 -6.046875 L 10.601562 -5.820312 C 10.601562 -4.023438 9.359375 -3.542969 8.222656 -3.542969 L 5.515625 -3.542969 L 5.515625 -8.296875 Z M 7.867188 -16.191406 C 8.929688 -16.191406 10.09375 -15.8125 10.09375 -14.191406 L 10.09375 -13.863281 C 10.09375 -12.242188 8.929688 -11.863281 7.867188 -11.863281 L 5.515625 -11.863281 L 5.515625 -16.191406 Z M 7.867188 -16.191406 "/></g></g></g><g fill="#ffffff" fill-opacity="1"><g transform="translate(141.796308, 44.207251)"><g><path d="M 1.417969 -19.730469 L 1.417969 0 L 13.484375 0 L 13.484375 -3.542969 L 5.515625 -3.542969 L 5.515625 -8.296875 L 12.21875 -8.296875 L 12.21875 -11.839844 L 5.515625 -11.839844 L 5.515625 -16.191406 L 13.484375 -16.191406 L 13.484375 -19.730469 Z M 1.417969 -19.730469 "/></g></g></g><g fill="#ffffff" fill-opacity="1"><g transform="translate(158.31115, 44.207251)"><g/></g></g><g fill="#ffffff" fill-opacity="1"><g transform="translate(165.393143, 44.207251)"><g><path d="M 15.785156 -9.359375 L 15.785156 -10.371094 C 15.785156 -17.203125 13.332031 -19.730469 7.460938 -19.730469 L 1.417969 -19.730469 L 1.417969 0 L 7.460938 0 C 13.332031 0 15.785156 -2.53125 15.785156 -9.359375 Z M 5.515625 -3.542969 L 5.515625 -16.191406 L 7.234375 -16.191406 C 10.648438 -16.191406 11.613281 -14.320312 11.613281 -10.371094 L 11.613281 -9.359375 C 11.613281 -5.414062 10.648438 -3.542969 7.234375 -3.542969 Z M 5.515625 -3.542969 "/></g></g></g><g fill="#ffffff" fill-opacity="1"><g transform="translate(184.183991, 44.207251)"><g><path d="M 8.5 0.328125 C 13.636719 0.328125 16.039062 -2.53125 16.039062 -9.359375 L 16.039062 -10.371094 C 16.039062 -17.203125 13.636719 -20.0625 8.5 -20.0625 C 3.390625 -20.0625 0.988281 -17.203125 0.988281 -10.371094 L 0.988281 -9.359375 C 0.988281 -2.53125 3.390625 0.328125 8.5 0.328125 Z M 8.398438 -3.210938 C 5.867188 -3.210938 5.136719 -5.414062 5.136719 -9.359375 L 5.136719 -10.371094 C 5.136719 -14.320312 5.867188 -16.519531 8.398438 -16.519531 L 8.625 -16.519531 C 11.15625 -16.519531 11.863281 -14.320312 11.863281 -10.371094 L 11.863281 -9.359375 C 11.863281 -5.414062 11.15625 -3.210938 8.625 -3.210938 Z M 8.398438 -3.210938 "/></g></g></g><g fill="#ffffff" fill-opacity="1"><g transform="translate(203.227736, 44.207251)"><g><path d="M 14.699219 0.0507812 L 19.960938 0.0507812 L 23.222656 -19.730469 L 18.949219 -19.730469 L 17.050781 -5.539062 L 14.394531 -19.730469 L 9.308594 -19.730469 L 6.652344 -5.539062 L 4.757812 -19.730469 L 0.480469 -19.730469 L 3.742188 0.0507812 L 8.980469 0.0507812 L 11.839844 -15.050781 Z M 14.699219 0.0507812 "/></g></g></g><g fill="#ffffff" fill-opacity="1"><g transform="translate(228.947816, 44.207251)"><g><path d="M 15.863281 -19.730469 L 11.964844 -19.730469 L 11.964844 -11.460938 L 12.09375 -7.488281 L 5.742188 -19.730469 L 1.417969 -19.730469 L 1.417969 0 L 5.289062 0 L 5.289062 -8.273438 L 5.160156 -12.242188 L 11.535156 0 L 15.863281 0 Z M 15.863281 -19.730469 "/></g></g></g><g fill="#ffffff" fill-opacity="1"><g transform="translate(248.244453, 44.207251)"><g><path d="M 12.800781 0 L 12.800781 -3.542969 L 5.515625 -3.542969 L 5.515625 -19.730469 L 1.417969 -19.730469 L 1.417969 0 Z M 12.800781 0 "/></g></g></g><g fill="#ffffff" fill-opacity="1"><g transform="translate(263.444254, 44.207251)"><g><path d="M 8.5 0.328125 C 13.636719 0.328125 16.039062 -2.53125 16.039062 -9.359375 L 16.039062 -10.371094 C 16.039062 -17.203125 13.636719 -20.0625 8.5 -20.0625 C 3.390625 -20.0625 0.988281 -17.203125 0.988281 -10.371094 L 0.988281 -9.359375 C 0.988281 -2.53125 3.390625 0.328125 8.5 0.328125 Z M 8.398438 -3.210938 C 5.867188 -3.210938 5.136719 -5.414062 5.136719 -9.359375 L 5.136719 -10.371094 C 5.136719 -14.320312 5.867188 -16.519531 8.398438 -16.519531 L 8.625 -16.519531 C 11.15625 -16.519531 11.863281 -14.320312 11.863281 -10.371094 L 11.863281 -9.359375 C 11.863281 -5.414062 11.15625 -3.210938 8.625 -3.210938 Z M 8.398438 -3.210938 "/></g></g></g><g fill="#ffffff" fill-opacity="1"><g transform="translate(282.487987, 44.207251)"><g><path d="M 5.289062 -19.78125 L 0.355469 0 L 4.757812 0 L 5.691406 -4.25 L 10.523438 -4.25 L 11.484375 0 L 15.863281 0 L 10.929688 -19.78125 Z M 8.09375 -15.050781 L 9.714844 -7.792969 L 6.476562 -7.792969 Z M 8.09375 -15.050781 "/></g></g></g><g fill="#ffffff" fill-opacity="1"><g transform="translate(300.722475, 44.207251)"><g><path d="M 15.785156 -9.359375 L 15.785156 -10.371094 C 15.785156 -17.203125 13.332031 -19.730469 7.460938 -19.730469 L 1.417969 -19.730469 L 1.417969 0 L 7.460938 0 C 13.332031 0 15.785156 -2.53125 15.785156 -9.359375 Z M 5.515625 -3.542969 L 5.515625 -16.191406 L 7.234375 -16.191406 C 10.648438 -16.191406 11.613281 -14.320312 11.613281 -10.371094 L 11.613281 -9.359375 C 11.613281 -5.414062 10.648438 -3.542969 7.234375 -3.542969 Z M 5.515625 -3.542969 "/></g></g></g><g fill="#ffffff" fill-opacity="1"><g transform="translate(319.513329, 44.207251)"><g><path d="M 1.417969 -19.730469 L 1.417969 0 L 13.484375 0 L 13.484375 -3.542969 L 5.515625 -3.542969 L 5.515625 -8.296875 L 12.21875 -8.296875 L 12.21875 -11.839844 L 5.515625 -11.839844 L 5.515625 -16.191406 L 13.484375 -16.191406 L 13.484375 -19.730469 Z M 1.417969 -19.730469 "/></g></g></g><g fill="#ffffff" fill-opacity="1"><g transform="translate(336.028159, 44.207251)"><g><path d="M 5.515625 -7.082031 L 7.613281 -7.082031 L 10.320312 0 L 14.75 0 L 11.636719 -7.664062 C 13.40625 -8.398438 14.75 -9.96875 14.75 -13.15625 L 14.75 -13.660156 C 14.75 -18.898438 11.105469 -19.730469 7.894531 -19.730469 L 1.417969 -19.730469 L 1.417969 0 L 5.515625 0 Z M 5.515625 -10.625 L 5.515625 -16.191406 L 8.070312 -16.191406 C 9.183594 -16.191406 10.601562 -15.761719 10.601562 -13.535156 L 10.601562 -13.28125 C 10.601562 -11.054688 9.183594 -10.625 8.070312 -10.625 Z M 5.515625 -10.625 "/></g></g></g></svg>